<mxfile host="app.diagrams.net" modified="2023-11-20T07:36:18.251Z" agent="Mozilla/5.0 (Windows NT 10.0; Win64; x64) AppleWebKit/537.36 (KHTML, like Gecko) Chrome/119.0.0.0 Safari/537.36 Edg/119.0.0.0" version="22.1.3" etag="Q-IBN3kvTtM952Lo5cnc" type="github">
  <diagram name="第 1 页" id="pd5A9NxMT84SB00miKV5">
    <mxGraphModel>
      <root>
        <mxCell id="0" />
        <mxCell id="1" parent="0" />
      </root>
    </mxGraphModel>
  </diagram>
</mxfile>
